<?xml version="1.0" encoding="utf-8"?>
<svg xmlns="http://www.w3.org/2000/svg"
	xmlns:xlink="http://www.w3.org/1999/xlink"
	width="15px" height="12px" viewBox="0 0 15 12">
<path fillRule="evenodd" d="M 14.4 5.46C 14.4 5.46 9.72 0.79 9.72 0.79 9.39 0.45 8.84 0.45 8.51 0.79 8.17 1.13 8.17 1.67 8.51 2.01 8.51 2.01 11.71 5.21 11.71 5.21 11.71 5.21 1.04 5.21 1.04 5.21 0.57 5.21 0.18 5.6 0.18 6.07 0.18 6.55 0.57 6.93 1.04 6.93 1.04 6.93 11.71 6.93 11.71 6.93 11.71 6.93 8.51 10.14 8.51 10.14 8.17 10.48 8.17 11.02 8.51 11.36 8.67 11.53 8.89 11.61 9.11 11.61 9.33 11.61 9.55 11.53 9.72 11.36 9.72 11.36 14.4 6.68 14.4 6.68 14.56 6.52 14.65 6.3 14.65 6.07 14.65 5.84 14.56 5.63 14.4 5.46Z" fill="rgb(123,197,117)"/></svg>