<?xml version="1.0" encoding="utf-8"?>
<svg xmlns="http://www.w3.org/2000/svg"
	xmlns:xlink="http://www.w3.org/1999/xlink"
	width="16px" height="12px" viewBox="0 0 16 12">
<path fillRule="evenodd" d="M 5.34 11.68C 5.08 11.68 4.81 11.58 4.61 11.38 4.61 11.38 0.29 7.07 0.29 7.07-0.11 6.67-0.11 6.01 0.29 5.61 0.7 5.21 1.35 5.21 1.75 5.61 1.75 5.61 5.34 9.19 5.34 9.19 5.34 9.19 13.93 0.61 13.93 0.61 14.33 0.2 14.99 0.2 15.39 0.61 15.79 1.01 15.79 1.66 15.39 2.07 15.39 2.07 6.07 11.38 6.07 11.38 5.87 11.58 5.6 11.68 5.34 11.68Z" fill="rgb(203,203,203)"/></svg>