<?xml version="1.0" encoding="utf-8"?>
<svg xmlns="http://www.w3.org/2000/svg"
	xmlns:xlink="http://www.w3.org/1999/xlink"
	width="54px" height="48px" viewBox="0 0 54 48">
<path fillRule="evenodd" d="M 48.74 26.71C 38.05 38.61 28.61 47.05 28.52 47.14 28.08 47.53 27.53 47.72 26.99 47.72 26.44 47.72 25.89 47.53 25.46 47.14 25.36 47.05 15.92 38.61 5.23 26.71 0.82 21.79-0.3 15.46 2.24 9.78 4.69 4.28 9.91 0.72 15.52 0.72 21.21 0.72 24.87 3.25 26.99 5.95 29.1 3.25 32.76 0.72 38.45 0.72 44.06 0.72 49.28 4.28 51.73 9.78 54.27 15.46 53.15 21.79 48.74 26.71ZM 47.54 11.65C 45.85 7.86 42.19 5.32 38.45 5.32 30.8 5.32 29.28 11.18 29.22 11.43 28.97 12.45 28.04 13.18 26.99 13.18 25.93 13.18 25 12.45 24.75 11.43 24.59 10.82 22.93 5.32 15.52 5.32 11.78 5.32 8.13 7.86 6.43 11.65 4.63 15.69 5.44 20.06 8.65 23.64 16.65 32.55 23.92 39.47 26.99 42.31 30.05 39.47 37.32 32.55 45.32 23.64 48.53 20.06 49.34 15.69 47.54 11.65ZM 43.47 19C 43.41 19 43.36 19 43.31 19 42.11 19 41.1 18.07 41.02 16.86 40.75 12.82 37.92 12.39 37.8 12.37 36.55 12.2 35.66 11.04 35.84 9.78 36.01 8.53 37.16 7.64 38.42 7.82 40.73 8.13 45.2 10.36 45.61 16.56 45.69 17.82 44.73 18.92 43.47 19ZM 40.53 20C 41.13 20 41.73 20.24 42.16 20.67 42.58 21.09 42.83 21.68 42.83 22.29 42.83 22.9 42.58 23.49 42.16 23.92 41.73 24.34 41.13 24.59 40.53 24.59 39.93 24.59 39.34 24.34 38.9 23.92 38.48 23.49 38.23 22.9 38.23 22.29 38.23 21.68 38.48 21.09 38.9 20.67 39.34 20.24 39.93 20 40.53 20Z" fill="rgb(0,0,0)"/></svg>