<?xml version="1.0" encoding="utf-8"?>
<svg xmlns="http://www.w3.org/2000/svg"
	xmlns:xlink="http://www.w3.org/1999/xlink"
	width="55px" height="44px" viewBox="0 0 55 44">
<path fillRule="evenodd" d="M 3.54 43.28C 2.98 43.28 2.42 43.13 1.91 42.82 0.42 41.92-0.06 39.98 0.84 38.48 0.84 38.48 8.08 26.53 8.08 26.53 8.62 25.63 9.58 25.06 10.63 25.01 11.67 24.96 12.69 25.44 13.32 26.29 13.32 26.29 16.26 30.28 16.26 30.28 16.26 30.28 22.68 19.52 22.68 19.52 23.22 18.62 24.17 18.05 25.22 17.99 26.28 17.93 27.27 18.4 27.91 19.23 27.91 19.23 33.48 26.58 33.48 26.58 33.48 26.58 48.36 2.23 48.36 2.23 49.27 0.74 51.21 0.28 52.7 1.19 54.19 2.09 54.65 4.04 53.75 5.52 53.75 5.52 36.45 33.82 36.45 33.82 35.91 34.71 34.96 35.28 33.92 35.33 32.89 35.38 31.87 34.91 31.24 34.08 31.24 34.08 25.7 26.77 25.7 26.77 25.7 26.77 19.24 37.59 19.24 37.59 18.7 38.49 17.74 39.07 16.68 39.12 15.64 39.18 14.62 38.69 13.99 37.84 13.99 37.84 11.04 33.83 11.04 33.83 11.04 33.83 6.24 41.75 6.24 41.75 5.65 42.73 4.61 43.28 3.54 43.28Z" fill="rgb(0,0,0)"/></svg>