<?xml version="1.0" encoding="utf-8"?>
<svg xmlns="http://www.w3.org/2000/svg"
	xmlns:xlink="http://www.w3.org/1999/xlink"
	width="40px" height="52px" viewBox="0 0 40 52">
<path fillRule="evenodd" d="M 35.15 51.39C 35.15 51.39 4.67 51.39 4.67 51.39 2.06 51.39 0.37 49.78 0.37 47.28 0.37 47.28 0.37 4.84 0.37 4.84 0.37 2.34 2.06 0.73 4.67 0.73 4.67 0.73 35.15 0.73 35.15 0.73 37.77 0.73 39.46 2.34 39.46 4.84 39.46 4.84 39.46 47.28 39.46 47.28 39.46 49.78 37.77 51.39 35.15 51.39ZM 36.17 4.84C 36.17 4.38 36.17 4.02 35.15 4.02 35.15 4.02 4.67 4.02 4.67 4.02 3.66 4.02 3.66 4.38 3.66 4.84 3.66 4.84 3.66 47.28 3.66 47.28 3.66 47.74 3.66 48.1 4.67 48.1 4.67 48.1 35.15 48.1 35.15 48.1 36.17 48.1 36.17 47.74 36.17 47.28 36.17 47.28 36.17 4.84 36.17 4.84ZM 32.96 41.98C 32.96 41.98 6.87 41.98 6.87 41.98 6.26 41.98 5.77 41.49 5.77 40.88 5.77 40.88 5.77 7.76 5.77 7.76 5.77 7.16 6.26 6.66 6.87 6.66 6.87 6.66 32.96 6.66 32.96 6.66 33.57 6.66 34.06 7.16 34.06 7.76 34.06 7.76 34.06 40.88 34.06 40.88 34.06 41.49 33.57 41.98 32.96 41.98ZM 31.87 8.86C 31.87 8.86 7.96 8.86 7.96 8.86 7.96 8.86 7.96 39.78 7.96 39.78 7.96 39.78 31.87 39.78 31.87 39.78 31.87 39.78 31.87 8.86 31.87 8.86ZM 18.56 43.74C 19.27 43.03 20.56 43.03 21.27 43.74 21.62 44.1 21.83 44.6 21.83 45.1 21.83 45.61 21.62 46.1 21.27 46.46 20.91 46.81 20.42 47.02 19.92 47.02 19.41 47.02 18.91 46.81 18.56 46.46 18.2 46.1 18 45.61 18 45.1 18 44.59 18.2 44.1 18.56 43.74Z" fill="rgb(0,0,0)"/></svg>